<svg width="46" height="46" viewBox="0 0 46 46" fill="none" xmlns="http://www.w3.org/2000/svg">
<path d="M7 15.4464L21.324 24.9957C21.9207 25.3938 22.6219 25.6063 23.3392 25.6063C24.0565 25.6063 24.7577 25.3938 25.3543 24.9957L39.6784 15.4464M10.6309 35.4165H36.0474C37.0104 35.4165 37.934 35.034 38.6149 34.353C39.2958 33.6721 39.6784 32.7486 39.6784 31.7856V13.6309C39.6784 12.6679 39.2958 11.7444 38.6149 11.0635C37.934 10.3825 37.0104 10 36.0474 10H10.6309C9.66795 10 8.74441 10.3825 8.06347 11.0635C7.38254 11.7444 7 12.6679 7 13.6309V31.7856C7 32.7486 7.38254 33.6721 8.06347 34.353C8.74441 35.034 9.66795 35.4165 10.6309 35.4165Z" stroke="white" stroke-width="3" stroke-linecap="round" stroke-linejoin="round"/>
</svg>
