<svg width="46" height="46" viewBox="0 0 46 46" fill="none" xmlns="http://www.w3.org/2000/svg">
<path d="M36.428 7H9.572C8.152 7 7 8.152 7 9.572V36.428C7 37.848 8.152 39 9.572 39H36.428C37.848 39 39 37.848 39 36.428V9.572C39 8.152 37.848 7 36.428 7V7ZM36.428 36.44C18.516 36.436 9.56 36.432 9.56 36.428C9.564 18.516 9.568 9.56 9.572 9.56C27.484 9.564 36.44 9.568 36.44 9.572C36.436 27.484 36.432 36.44 36.428 36.44ZM11.744 18.996H16.492V34.268H11.744V18.996ZM14.12 16.908C15.636 16.908 16.872 15.676 16.872 14.156C16.872 13.7946 16.8008 13.4367 16.6625 13.1029C16.5242 12.769 16.3215 12.4656 16.066 12.21C15.8104 11.9545 15.507 11.7518 15.1731 11.6135C14.8393 11.4752 14.4814 11.404 14.12 11.404C13.7586 11.404 13.4007 11.4752 13.0669 11.6135C12.733 11.7518 12.4296 11.9545 12.174 12.21C11.9185 12.4656 11.7158 12.769 11.5775 13.1029C11.4392 13.4367 11.368 13.7946 11.368 14.156C11.364 15.676 12.596 16.908 14.12 16.908ZM24.212 26.712C24.212 24.72 24.592 22.792 27.06 22.792C29.492 22.792 29.528 25.068 29.528 26.84V34.268H34.272V25.892C34.272 21.78 33.384 18.616 28.58 18.616C26.272 18.616 24.724 19.884 24.088 21.084H24.024V18.996H19.468V34.268H24.212V26.712Z" fill="white"/>
</svg>
