<svg width="46" height="46" viewBox="0 0 46 46" fill="none" xmlns="http://www.w3.org/2000/svg">
<path d="M30.1939 25.6687C29.8046 25.4668 27.8652 24.5078 27.5045 24.378C27.1437 24.241 26.8794 24.1761 26.6187 24.5799C26.3544 24.9801 25.6043 25.8707 25.3686 26.1411C25.14 26.4079 24.9078 26.4403 24.5185 26.242C22.2041 25.0738 20.6861 24.158 19.161 21.5152C18.7574 20.8121 19.5646 20.8626 20.3182 19.3447C20.4468 19.0778 20.3825 18.8507 20.2825 18.6488C20.1825 18.4469 19.3967 16.4927 19.0681 15.6959C18.7503 14.9207 18.4217 15.0288 18.1824 15.0144C17.9538 15 17.693 15 17.4287 15C17.1644 15 16.7394 15.101 16.3787 15.494C16.0179 15.8942 15 16.8568 15 18.811C15 20.7652 16.4108 22.6581 16.6037 22.9249C16.8037 23.1917 19.3789 27.2011 23.3327 28.9281C25.8329 30.017 26.8115 30.1107 28.0616 29.9233C28.8224 29.8079 30.3904 28.9642 30.7154 28.0304C31.0404 27.1001 31.0404 26.3033 30.944 26.1375C30.8475 25.9608 30.5832 25.8598 30.1939 25.6687Z" fill="white"/>
<path d="M37.757 16.8C36.9498 14.8821 35.7927 13.1607 34.3177 11.6821C32.8427 10.2071 31.1213 9.04643 29.1999 8.24286C27.2357 7.41786 25.15 7 23 7H22.9286C20.7643 7.01071 18.6679 7.43929 16.6965 8.28214C14.793 9.09643 13.0858 10.2536 11.6251 11.7286C10.1644 13.2036 9.01803 14.9179 8.22519 16.8286C7.40377 18.8071 6.98949 20.9107 7.0002 23.075C7.01092 25.5536 7.60377 28.0143 8.71447 30.2143V35.6429C8.71447 36.55 9.45017 37.2857 10.3573 37.2857H15.7894C17.9894 38.3964 20.45 38.9893 22.9286 39H23.0036C25.1428 39 27.2178 38.5857 29.1714 37.775C31.082 36.9786 32.7999 35.8357 34.2713 34.375C35.7463 32.9143 36.907 31.2071 37.7177 29.3036C38.5605 27.3321 38.9891 25.2357 38.9998 23.0714C39.0105 20.8964 38.5891 18.7857 37.757 16.8ZM32.3606 32.4429C29.8571 34.9214 26.5357 36.2857 23 36.2857H22.9393C20.7857 36.275 18.6465 35.7393 16.7572 34.7321L16.4572 34.5714H11.4287V29.5429L11.268 29.2429C10.2609 27.3536 9.72517 25.2143 9.71445 23.0607C9.70017 19.5 11.0609 16.1571 13.5573 13.6393C16.0501 11.1214 19.3822 9.72857 22.9429 9.71429H23.0036C24.7893 9.71429 26.5214 10.0607 28.1535 10.7464C29.7463 11.4143 31.1749 12.375 32.4035 13.6036C33.6284 14.8286 34.5927 16.2607 35.2606 17.8536C35.9534 19.5036 36.2998 21.2536 36.2927 23.0607C36.2713 26.6179 34.8749 29.95 32.3606 32.4429Z" fill="white"/>
</svg>
