<svg width="46" height="46" viewBox="0 0 46 46" fill="none" xmlns="http://www.w3.org/2000/svg">
<path d="M23.0018 7C14.1608 6.99633 7 14.3482 7 23.4223C7 30.5979 11.4795 36.6975 17.7179 38.9376C18.558 39.1542 18.4293 38.541 18.4293 38.1223V35.2763C13.578 35.8602 13.3814 32.5625 13.0561 32.0117C12.3983 30.8586 10.8431 30.5648 11.3079 30.014C12.4126 29.4301 13.5387 30.1609 14.8436 32.1402C15.7874 33.5761 17.6285 33.3337 18.5616 33.095C18.7654 32.232 19.2015 31.4609 19.8021 30.8623C14.7757 29.9369 12.6807 26.7861 12.6807 23.0404C12.6807 21.2226 13.2634 19.5518 14.4074 18.204C13.6781 15.9823 14.4754 14.0801 14.5826 13.7973C16.6597 13.6064 18.819 15.325 18.987 15.4609C20.1668 15.134 21.5146 14.9614 23.0232 14.9614C24.539 14.9614 25.8904 15.1414 27.0809 15.4719C27.4849 15.1561 29.4869 13.6798 31.4174 13.8598C31.5211 14.1425 32.3004 16.0007 31.614 18.193C32.7723 19.5444 33.3622 21.23 33.3622 23.0514C33.3622 26.8045 31.2529 29.9589 26.2122 30.8696C26.6439 31.3058 26.9867 31.8259 27.2206 32.3997C27.4545 32.9735 27.5747 33.5894 27.5742 34.2114V38.3427C27.6028 38.6732 27.5742 39 28.1105 39C34.4419 36.8077 39 30.664 39 23.426C39 14.3482 31.8357 7 23.0018 7Z" fill="white"/>
</svg>
