<svg width="48" height="46" viewBox="0 0 48 46" fill="none" xmlns="http://www.w3.org/2000/svg">
<path d="M23.9954 14.2774C19.1685 14.2774 15.2729 18.173 15.2729 23C15.2729 27.827 19.1685 31.7226 23.9954 31.7226C28.8224 31.7226 32.7179 27.827 32.7179 23C32.7179 18.173 28.8224 14.2774 23.9954 14.2774ZM23.9954 28.6691C20.8739 28.6691 18.3265 26.1216 18.3265 23C18.3265 19.8784 20.8739 17.3309 23.9954 17.3309C27.117 17.3309 29.6644 19.8784 29.6644 23C29.6644 26.1216 27.117 28.6691 23.9954 28.6691ZM33.0751 11.8872C31.9482 11.8872 31.0381 12.7974 31.0381 13.9244C31.0381 15.0514 31.9482 15.9615 33.0751 15.9615C34.2021 15.9615 35.1122 15.0556 35.1122 13.9244C35.1126 13.6568 35.0601 13.3917 34.9579 13.1444C34.8556 12.8971 34.7056 12.6724 34.5163 12.4832C34.3271 12.2939 34.1024 12.1439 33.8551 12.0416C33.6078 11.9394 33.3428 11.8869 33.0751 11.8872V11.8872ZM40.9981 23C40.9981 20.6524 41.0194 18.3261 40.8875 15.9828C40.7557 13.2609 40.1348 10.8453 38.1445 8.85494C36.1499 6.86035 33.7386 6.24368 31.0168 6.11184C28.6693 5.98 26.343 6.00126 23.9997 6.00126C21.6521 6.00126 19.3259 5.98 16.9826 6.11184C14.2608 6.24368 11.8452 6.8646 9.85489 8.85494C7.86033 10.8495 7.24367 13.2609 7.11184 15.9828C6.98 18.3303 7.00126 20.6567 7.00126 23C7.00126 25.3433 6.98 27.6739 7.11184 30.0172C7.24367 32.7391 7.86458 35.1547 9.85489 37.1451C11.8495 39.1397 14.2608 39.7563 16.9826 39.8882C19.3301 40.02 21.6564 39.9987 23.9997 39.9987C26.3472 39.9987 28.6735 40.02 31.0168 39.8882C33.7386 39.7563 36.1542 39.1354 38.1445 37.1451C40.139 35.1505 40.7557 32.7391 40.8875 30.0172C41.0236 27.6739 40.9981 25.3476 40.9981 23V23ZM37.2556 33.0283C36.9452 33.8023 36.5709 34.3807 35.9713 34.9761C35.3717 35.5757 34.7975 35.95 34.0235 36.2605C31.7866 37.1493 26.4748 36.9494 23.9954 36.9494C21.5161 36.9494 16.2001 37.1493 13.9631 36.2647C13.1891 35.9543 12.6107 35.58 12.0153 34.9803C11.4157 34.3807 11.0414 33.8066 10.731 33.0325C9.84638 30.7913 10.0463 25.4794 10.0463 23C10.0463 20.5206 9.84638 15.2045 10.731 12.9675C11.0414 12.1934 11.4157 11.6151 12.0153 11.0197C12.615 10.4243 13.1891 10.0457 13.9631 9.73529C16.2001 8.85069 21.5161 9.05058 23.9954 9.05058C26.4748 9.05058 31.7908 8.85069 34.0278 9.73529C34.8018 10.0457 35.3802 10.42 35.9756 11.0197C36.5752 11.6193 36.9494 12.1934 37.2599 12.9675C38.1445 15.2045 37.9446 20.5206 37.9446 23C37.9446 25.4794 38.1445 30.7913 37.2556 33.0283Z" fill="white"/>
</svg>
