<svg width="310" height="48" viewBox="0 0 310 48" fill="none" xmlns="http://www.w3.org/2000/svg">
<path d="M19.5938 38.0445L19.5938 2.47873L31.625 6.95547V42.5213L19.5938 38.0445Z" stroke="white" stroke-width="2.75"/>
<rect x="24.0625" y="19.75" width="6.1875" height="2.75" fill="white"/>
<rect width="9.625" height="2.75" transform="matrix(-1 0 0 1 18.2188 4.625)" fill="white"/>
<rect x="11.6875" y="41.75" width="21.3125" height="2.75" fill="white"/>
<rect x="5.5" y="36.25" width="12.7188" height="2.75" fill="white"/>
<rect y="36.25" width="2.75" height="2.75" fill="white"/>
<rect x="8.25" y="11.5" width="22" height="2.75" fill="white"/>
<rect x="2.75" y="11.5" width="2.75" height="2.75" fill="white"/>
<rect x="10.6562" y="24.5625" width="7.5625" height="2.75" fill="white"/>
<rect x="5.15625" y="24.5625" width="2.75" height="2.75" fill="white"/>
<path d="M68.916 37.86C65.796 37.86 63.456 36.984 61.896 35.232C60.336 33.456 59.496 31.08 59.376 28.104C59.352 27.456 59.34 26.4 59.34 24.936C59.34 23.448 59.352 22.368 59.376 21.696C59.496 18.72 60.336 16.356 61.896 14.604C63.456 12.828 65.796 11.94 68.916 11.94C71.052 11.94 72.828 12.336 74.244 13.128C75.66 13.896 76.704 14.88 77.376 16.08C78.072 17.256 78.456 18.468 78.528 19.716V19.788C78.528 19.98 78.456 20.136 78.312 20.256C78.168 20.376 77.988 20.436 77.772 20.436H77.052C76.62 20.436 76.356 20.184 76.26 19.68C75.804 17.64 74.976 16.2 73.776 15.36C72.576 14.52 70.956 14.1 68.916 14.1C66.66 14.1 64.908 14.736 63.66 16.008C62.412 17.28 61.74 19.236 61.644 21.876C61.62 22.524 61.608 23.52 61.608 24.864C61.608 26.208 61.62 27.228 61.644 27.924C61.74 30.564 62.412 32.52 63.66 33.792C64.908 35.064 66.66 35.7 68.916 35.7C70.956 35.7 72.576 35.28 73.776 34.44C74.976 33.6 75.804 32.16 76.26 30.12C76.356 29.616 76.62 29.364 77.052 29.364H77.772C77.988 29.364 78.168 29.436 78.312 29.58C78.48 29.7 78.552 29.868 78.528 30.084C78.456 31.332 78.072 32.556 77.376 33.756C76.704 34.932 75.66 35.916 74.244 36.708C72.828 37.476 71.052 37.86 68.916 37.86ZM90.8324 37.5C90.5924 37.5 90.4004 37.428 90.2564 37.284C90.1124 37.14 90.0404 36.948 90.0404 36.708V27.888L81.2564 13.488C81.1604 13.296 81.1124 13.14 81.1124 13.02C81.1124 12.828 81.1844 12.66 81.3284 12.516C81.4724 12.372 81.6404 12.3 81.8324 12.3H82.5524C82.8884 12.3 83.1644 12.48 83.3804 12.84L91.1924 25.548L99.0044 12.84C99.2204 12.48 99.4964 12.3 99.8324 12.3H100.552C100.744 12.3 100.912 12.372 101.056 12.516C101.2 12.66 101.272 12.828 101.272 13.02C101.272 13.14 101.224 13.296 101.128 13.488L92.3444 27.888V36.708C92.3444 36.948 92.2604 37.14 92.0924 37.284C91.9484 37.428 91.7564 37.5 91.5164 37.5H90.8324ZM106.739 37.5C106.499 37.5 106.307 37.428 106.163 37.284C106.019 37.14 105.947 36.948 105.947 36.708V13.128C105.947 12.888 106.019 12.696 106.163 12.552C106.307 12.384 106.499 12.3 106.739 12.3H116.135C118.511 12.3 120.311 12.912 121.535 14.136C122.759 15.36 123.371 16.896 123.371 18.744C123.371 20.16 123.059 21.324 122.435 22.236C121.811 23.148 121.067 23.808 120.203 24.216C121.235 24.744 122.099 25.548 122.795 26.628C123.515 27.708 123.875 28.956 123.875 30.372C123.875 31.62 123.575 32.796 122.975 33.9C122.399 34.98 121.547 35.856 120.419 36.528C119.291 37.176 117.947 37.5 116.387 37.5H106.739ZM115.667 23.244C117.443 23.244 118.787 22.86 119.699 22.092C120.635 21.3 121.103 20.184 121.103 18.744C121.103 17.328 120.635 16.26 119.699 15.54C118.787 14.82 117.443 14.46 115.667 14.46H108.215V23.244H115.667ZM116.027 35.34C117.779 35.34 119.147 34.884 120.131 33.972C121.115 33.036 121.607 31.836 121.607 30.372C121.607 28.884 121.115 27.684 120.131 26.772C119.147 25.86 117.779 25.404 116.027 25.404H108.215V35.34H116.027ZM130.258 37.5C130.018 37.5 129.826 37.428 129.682 37.284C129.538 37.14 129.466 36.948 129.466 36.708V13.128C129.466 12.888 129.538 12.696 129.682 12.552C129.826 12.384 130.018 12.3 130.258 12.3H144.298C144.562 12.3 144.766 12.372 144.91 12.516C145.054 12.66 145.126 12.864 145.126 13.128V13.668C145.126 13.908 145.042 14.1 144.874 14.244C144.73 14.388 144.538 14.46 144.298 14.46H131.734V23.64H143.506C143.77 23.64 143.974 23.712 144.118 23.856C144.262 24 144.334 24.204 144.334 24.468V25.008C144.334 25.248 144.25 25.44 144.082 25.584C143.938 25.728 143.746 25.8 143.506 25.8H131.734V35.34H144.586C144.85 35.34 145.054 35.412 145.198 35.556C145.342 35.7 145.414 35.904 145.414 36.168V36.708C145.414 36.948 145.33 37.14 145.162 37.284C145.018 37.428 144.826 37.5 144.586 37.5H130.258ZM151.563 37.5C151.323 37.5 151.131 37.428 150.987 37.284C150.843 37.14 150.771 36.948 150.771 36.708V13.128C150.771 12.888 150.843 12.696 150.987 12.552C151.131 12.384 151.323 12.3 151.563 12.3H159.951C162.543 12.3 164.571 12.912 166.035 14.136C167.499 15.36 168.231 17.172 168.231 19.572C168.231 21.468 167.763 23.004 166.827 24.18C165.891 25.332 164.547 26.112 162.795 26.52L168.591 36.384C168.663 36.528 168.699 36.66 168.699 36.78C168.699 36.972 168.627 37.14 168.483 37.284C168.339 37.428 168.171 37.5 167.979 37.5H167.547C167.187 37.5 166.911 37.428 166.719 37.284C166.551 37.116 166.371 36.864 166.179 36.528L160.455 26.844H153.039V36.708C153.039 36.948 152.955 37.14 152.787 37.284C152.643 37.428 152.451 37.5 152.211 37.5H151.563ZM159.771 24.684C161.859 24.684 163.407 24.264 164.415 23.424C165.447 22.56 165.963 21.276 165.963 19.572C165.963 17.868 165.447 16.596 164.415 15.756C163.407 14.892 161.859 14.46 159.771 14.46H153.039V24.684H159.771ZM182.33 37.86C180.05 37.86 178.094 37.524 176.462 36.852C174.83 36.18 173.594 35.304 172.754 34.224C171.938 33.12 171.506 31.92 171.458 30.624C171.458 30.432 171.53 30.264 171.674 30.12C171.842 29.952 172.034 29.868 172.25 29.868H176.786C177.074 29.868 177.302 29.928 177.47 30.048C177.662 30.144 177.854 30.3 178.046 30.516C178.358 31.14 178.862 31.656 179.558 32.064C180.254 32.472 181.178 32.676 182.33 32.676C183.698 32.676 184.742 32.46 185.462 32.028C186.182 31.596 186.542 31.008 186.542 30.264C186.542 29.736 186.35 29.304 185.966 28.968C185.606 28.632 185.03 28.332 184.238 28.068C183.446 27.804 182.27 27.504 180.71 27.168C177.83 26.568 175.67 25.692 174.23 24.54C172.814 23.364 172.106 21.696 172.106 19.536C172.106 18.072 172.514 16.764 173.33 15.612C174.146 14.46 175.31 13.56 176.822 12.912C178.334 12.264 180.098 11.94 182.114 11.94C184.202 11.94 186.014 12.3 187.55 13.02C189.086 13.74 190.25 14.652 191.042 15.756C191.858 16.836 192.29 17.904 192.338 18.96C192.338 19.176 192.266 19.356 192.122 19.5C191.978 19.644 191.798 19.716 191.582 19.716H186.83C186.542 19.716 186.302 19.668 186.11 19.572C185.942 19.476 185.786 19.32 185.642 19.104C185.498 18.552 185.102 18.084 184.454 17.7C183.83 17.316 183.05 17.124 182.114 17.124C181.034 17.124 180.206 17.316 179.63 17.7C179.054 18.084 178.766 18.648 178.766 19.392C178.766 19.896 178.922 20.316 179.234 20.652C179.57 20.988 180.098 21.3 180.818 21.588C181.562 21.852 182.618 22.128 183.986 22.416C186.218 22.824 187.994 23.34 189.314 23.964C190.658 24.564 191.642 25.356 192.266 26.34C192.89 27.3 193.202 28.512 193.202 29.976C193.202 31.584 192.734 32.988 191.798 34.188C190.886 35.364 189.602 36.276 187.946 36.924C186.314 37.548 184.442 37.86 182.33 37.86ZM200.556 37.5C200.148 37.5 199.824 37.392 199.584 37.176C199.344 36.936 199.2 36.648 199.152 36.312L195.228 13.308C195.204 13.236 195.192 13.152 195.192 13.056C195.192 12.864 195.264 12.696 195.408 12.552C195.576 12.384 195.756 12.3 195.948 12.3H200.412C201.084 12.3 201.456 12.564 201.528 13.092L203.868 27.132L206.46 18.852C206.724 18.204 207.12 17.88 207.648 17.88H210.24C210.84 17.88 211.236 18.204 211.428 18.852L214.02 27.132L216.36 13.092C216.432 12.564 216.804 12.3 217.476 12.3H221.94C222.156 12.3 222.336 12.384 222.48 12.552C222.648 12.696 222.732 12.864 222.732 13.056L222.696 13.308L218.772 36.312C218.724 36.648 218.568 36.936 218.304 37.176C218.064 37.392 217.752 37.5 217.368 37.5H213.948C213.564 37.5 213.264 37.404 213.048 37.212C212.832 37.02 212.676 36.804 212.58 36.564L208.944 26.268L205.308 36.564C205.092 37.188 204.648 37.5 203.976 37.5H200.556ZM227.342 37.5C227.102 37.5 226.886 37.416 226.694 37.248C226.526 37.056 226.442 36.84 226.442 36.6V13.2C226.442 12.936 226.526 12.72 226.694 12.552C226.886 12.384 227.102 12.3 227.342 12.3H232.166C232.43 12.3 232.646 12.384 232.814 12.552C233.006 12.72 233.102 12.936 233.102 13.2V36.6C233.102 36.864 233.006 37.08 232.814 37.248C232.646 37.416 232.43 37.5 232.166 37.5H227.342ZM244.558 37.5C244.318 37.5 244.102 37.416 243.91 37.248C243.742 37.056 243.658 36.84 243.658 36.6V17.952H237.25C237.01 17.952 236.794 17.868 236.602 17.7C236.434 17.508 236.35 17.292 236.35 17.052V13.2C236.35 12.936 236.434 12.72 236.602 12.552C236.794 12.384 237.01 12.3 237.25 12.3H256.618C256.882 12.3 257.098 12.384 257.266 12.552C257.434 12.72 257.518 12.936 257.518 13.2V17.052C257.518 17.316 257.434 17.532 257.266 17.7C257.098 17.868 256.882 17.952 256.618 17.952H250.21V36.6C250.21 36.84 250.126 37.056 249.958 37.248C249.79 37.416 249.574 37.5 249.31 37.5H244.558ZM270.735 37.86C267.303 37.86 264.615 37.032 262.671 35.376C260.751 33.696 259.731 31.272 259.611 28.104C259.587 27.456 259.575 26.4 259.575 24.936C259.575 23.448 259.587 22.368 259.611 21.696C259.731 18.576 260.775 16.176 262.743 14.496C264.711 12.792 267.375 11.94 270.735 11.94C272.847 11.94 274.743 12.3 276.423 13.02C278.103 13.716 279.423 14.724 280.383 16.044C281.367 17.34 281.871 18.864 281.895 20.616V20.688C281.895 20.88 281.811 21.048 281.643 21.192C281.499 21.312 281.331 21.372 281.139 21.372H276.279C275.967 21.372 275.727 21.312 275.559 21.192C275.391 21.048 275.247 20.796 275.127 20.436C274.791 19.212 274.263 18.36 273.543 17.88C272.823 17.376 271.875 17.124 270.699 17.124C267.867 17.124 266.403 18.708 266.307 21.876C266.283 22.524 266.271 23.52 266.271 24.864C266.271 26.208 266.283 27.228 266.307 27.924C266.403 31.092 267.867 32.676 270.699 32.676C271.875 32.676 272.835 32.424 273.579 31.92C274.323 31.392 274.839 30.54 275.127 29.364C275.223 29.004 275.355 28.764 275.523 28.644C275.691 28.5 275.943 28.428 276.279 28.428H281.139C281.355 28.428 281.535 28.5 281.679 28.644C281.847 28.788 281.919 28.968 281.895 29.184C281.871 30.936 281.367 32.472 280.383 33.792C279.423 35.088 278.103 36.096 276.423 36.816C274.743 37.512 272.847 37.86 270.735 37.86ZM286.58 37.5C286.316 37.5 286.1 37.416 285.932 37.248C285.764 37.08 285.68 36.864 285.68 36.6V13.2C285.68 12.936 285.764 12.72 285.932 12.552C286.124 12.384 286.34 12.3 286.58 12.3H291.224C291.488 12.3 291.704 12.384 291.872 12.552C292.064 12.72 292.16 12.936 292.16 13.2V21.876H301.016V13.2C301.016 12.936 301.1 12.72 301.268 12.552C301.436 12.384 301.652 12.3 301.916 12.3H306.56C306.824 12.3 307.04 12.384 307.208 12.552C307.376 12.72 307.46 12.936 307.46 13.2V36.6C307.46 36.864 307.376 37.08 307.208 37.248C307.04 37.416 306.824 37.5 306.56 37.5H301.916C301.652 37.5 301.436 37.416 301.268 37.248C301.1 37.08 301.016 36.864 301.016 36.6V27.636H292.16V36.6C292.16 36.864 292.064 37.08 291.872 37.248C291.704 37.416 291.488 37.5 291.224 37.5H286.58Z" fill="white"/>
</svg>
